<svg xmlns="http://www.w3.org/2000/svg" width="226" height="226" fill="none"><path fill-rule="evenodd" clip-rule="evenodd" d="M188.4 117.4a74.5 74.5 0 11-149 0 74.5 74.5 0 01149 0z" fill="#F0F1F2"/><clipPath id="a" clipPathUnits="userSpaceOnUse" x="39" y="28" width="150" height="164"><path fill-rule="evenodd" clip-rule="evenodd" d="M188.4 117.3a74.5 74.5 0 11-149 0V28.9h149v88.4z" fill="#fff"/></clipPath><g clip-path="url(#a)"><g filter="url(#filter0_d)"><path d="M169 61.3a2 2 0 00-2-2H68.3a2 2 0 00-2 2v136.4c0 1.2.9 2 2 2h98.5a2 2 0 002-2V61.3z" fill="#fff"/></g><g filter="url(#filter1_d)"><path d="M161.9 54.3a2 2 0 00-2-2H61.4a2 2 0 00-2 2v141c0 1.2.9 2 2 2h98.5a2 2 0 002-2v-141z" fill="#fff"/></g><path d="M104.4 96.7V65.4L73.1 96.7h31.3z" fill="#E0A143"/><path d="M73 65.4v31.3l31.4-31.3H73.1z" fill="#E9AF58"/><path fill-rule="evenodd" clip-rule="evenodd" d="M71.1 110.3c0-1.1 1-2 2-2h75a2 2 0 110 4h-75a2 2 0 01-2-2zM71.1 120.7c0-1 1-2 2-2h75a2 2 0 110 4h-75a2 2 0 01-2-2zM71.1 131.1c0-1 1-2 2-2h75a2 2 0 110 4h-75a2 2 0 01-2-2zM71.1 141.5c0-1.1 1-2 2-2h75a2 2 0 110 4h-75a2 2 0 01-2-2zM71.1 151.9c0-1.1 1-2 2-2h54.1a2 2 0 010 4h-54a2 2 0 01-2-2z" fill="#E8E9EB"/></g><defs><filter id="filter0_d" x="61.4" y="55.3" width="112.5" height="150.4" filterUnits="userSpaceOnUse" color-interpolation-filters="sRGB"><feFlood flood-opacity="0" result="BackgroundImageFix"/><feColorMatrix in="SourceAlpha" values="0 0 0 0 0 0 0 0 0 0 0 0 0 0 0 0 0 0 127 0"/><feOffset dy="1"/><feGaussianBlur stdDeviation="2.5"/><feColorMatrix values="0 0 0 0 0 0 0 0 0 0 0 0 0 0 0 0 0 0 0.3 0"/><feBlend in2="BackgroundImageFix" result="effect1_dropShadow"/><feBlend in="SourceGraphic" in2="effect1_dropShadow" result="shape"/></filter><filter id="filter1_d" x="49.4" y="44.3" width="122.5" height="165.1" filterUnits="userSpaceOnUse" color-interpolation-filters="sRGB"><feFlood flood-opacity="0" result="BackgroundImageFix"/><feColorMatrix in="SourceAlpha" values="0 0 0 0 0 0 0 0 0 0 0 0 0 0 0 0 0 0 127 0"/><feOffset dy="2"/><feGaussianBlur stdDeviation="5"/><feColorMatrix values="0 0 0 0 0 0 0 0 0 0 0 0 0 0 0 0 0 0 0.3 0"/><feBlend in2="BackgroundImageFix" result="effect1_dropShadow"/><feBlend in="SourceGraphic" in2="effect1_dropShadow" result="shape"/></filter></defs></svg>