<svg width="57" height="54" viewBox="0 0 57 54" fill="none" xmlns="http://www.w3.org/2000/svg">
<path d="M52.25 27C52.25 29.295 51.8937 31.5225 51.205 33.615C49.3287 29.7225 45.1962 27 40.375 27C33.82 27 28.5 32.04 28.5 38.25C28.5 42.8175 31.3737 46.7325 35.4825 48.51C33.2737 49.1625 30.9225 49.5 28.5 49.5C15.39 49.5 4.75 39.42 4.75 27C4.75 14.58 15.39 4.5 28.5 4.5C41.61 4.5 52.25 14.58 52.25 27Z" fill="white" fill-opacity="0.3"/>
<path d="M35.4583 48.4875C31.3496 46.71 28.4996 42.795 28.4996 38.25C28.4996 35.775 29.3308 33.5025 30.7796 31.635C30.0196 31.545 29.2596 31.5 28.4996 31.5C20.7096 31.5 14.0358 35.9325 11.0908 42.2775C15.4371 46.71 21.6121 49.5 28.4996 49.5C30.9221 49.5 33.2496 49.1625 35.4583 48.4875Z" fill="white" fill-opacity="0.6"/>
<path d="M31.16 31.14H31.1838C32.49 29.61 34.2475 28.395 36.2425 27.6975C37.3588 26.2125 38 24.435 38 22.5C38 17.5275 33.7488 13.5 28.5 13.5C23.2512 13.5 19 17.5275 19 22.5C19 27.4725 23.2512 31.5 28.5 31.5C29.4262 31.5 30.3288 31.365 31.1838 31.14" fill="white" fill-opacity="0.6"/>
<path d="M40.375 49.5C46.9334 49.5 52.25 44.4632 52.25 38.25C52.25 32.0368 46.9334 27 40.375 27C33.8166 27 28.5 32.0368 28.5 38.25C28.5 44.4632 33.8166 49.5 40.375 49.5Z" fill="white" fill-opacity="0.6"/>
<path d="M34.6748 36.7874L38.9498 40.8374L46.0748 34.0874" stroke="white" stroke-opacity="0.6" stroke-width="1.2" stroke-miterlimit="10"/>
</svg>
